# xmcd CD database file
#
# Track frame offsets:
#	225
#	18588
#	42220
#	68760
#	92429
#	109178
#	130211
#	153895
#	189768
#	208318
#	232172
#	261939
#	284979
#
# Disc length: 3965 seconds
#
# Revision: 0
# Processed by: cddbd v1.5.2PL0 Copyright (c) Steve Scherf et al.
# Submitted via: CDex 1.51
#
DISCID=bd0f7a0d
DTITLE=Gerarg Butter Kees Heijliger Kwartet - After All
DYEAR=2003
DGENRE=Jazz
TTITLE0=Days_of_wine_and_roses
TTITLE1=Whisper_Not
TTITLE2=Loverman
TTITLE3=Autumn_Afternoon
TTITLE4=There_is_no_greater_Love
TTITLE5=Lady_Bird
TTITLE6=When_Sunny_gets_Blue
TTITLE7=Hassans_Dream
TTITLE8=Waltzing
TTITLE9=Stolen_Moments
TTITLE10=Black_Orpheus
TTITLE11=In_a_sentimental_Mood
TTITLE12=Splanky
EXTD=YEAR: 2003
EXTT0=
EXTT1=
EXTT2=
EXTT3=
EXTT4=
EXTT5=
EXTT6=
EXTT7=
EXTT8=
EXTT9=
EXTT10=
EXTT11=
EXTT12=
PLAYORDER=
